<?xml version="1.0" encoding="UTF-8" standalone="no"?>
<!-- Created with Inkscape (http://www.inkscape.org/) -->

<svg
   width="172mm"
   height="33mm"
   viewBox="0 0 172 33"
   version="1.1"
   id="svg1"
   xmlns="http://www.w3.org/2000/svg"
   xmlns:svg="http://www.w3.org/2000/svg">
  <defs
     id="defs1" />
  <g
     id="layer1">
    <path
       id="rect8"
       style="stroke-width:0.264583"
       d="M -6.0144649,-4.3586969 H 180.63867 V 38.947463 H -6.0144649 Z" />
    <g
       id="text1"
       style="font-size:22.5778px;stroke-width:0.264583"
       aria-label="TYPELERATE">
      <path
         style="fill:#00ff00"
         d="m 29.994169,20.721596 q 1.490135,0 1.490135,1.12889 0,1.12889 -1.490135,1.12889 h -5.215472 q -1.490134,0 -1.490134,-1.12889 0,-0.654756 0.383822,-0.880534 0.383823,-0.248356 1.106312,-0.248356 h 1.467557 V 12.074298 H 23.83043 v 2.099736 q 0,1.490134 -1.12889,1.490134 -1.12889,0 -1.12889,-1.490134 V 9.816518 h 11.650145 v 4.357516 q 0,0.722489 -0.248356,1.106312 -0.225778,0.383822 -0.880534,0.383822 -1.12889,0 -1.12889,-1.490134 v -2.099736 h -2.460981 v 8.647298 z m 6.841083,1.12889 q 0,-0.677334 0.383822,-0.903112 0.406401,-0.225778 1.12889,-0.225778 h 1.467557 v -3.273781 l -3.725337,-5.373517 q -1.444979,0 -1.444979,-1.12889 0,-1.12889 1.512713,-1.12889 h 2.009424 q 1.490135,0 1.490135,1.12889 0,0.745067 -0.857957,1.106312 l 2.144891,3.070581 2.122314,-3.070581 q -0.903112,-0.338667 -0.903112,-1.106312 0,-0.677334 0.383822,-0.903112 0.406401,-0.225778 1.12889,-0.225778 h 2.077158 q 0.722489,0 1.106312,0.248356 0.383823,0.225778 0.383823,0.880534 0,1.12889 -1.467557,1.12889 l -3.70276,5.373517 v 3.273781 h 1.467557 q 1.512713,0 1.512713,1.12889 0,1.12889 -1.512713,1.12889 h -5.192894 q -1.512712,0 -1.512712,-1.12889 z m 22.826165,-7.766764 q 0,0.609601 -0.135467,1.174046 -0.135467,0.564445 -0.51929,1.174046 -0.383822,0.587022 -0.970845,1.038578 -0.564445,0.428979 -1.53529,0.72249 -0.948268,0.270934 -2.190047,0.270934 h -2.212625 v 2.25778 h 2.235203 q 1.490135,0 1.490135,1.12889 0,1.12889 -1.490135,1.12889 h -4.83165 q -1.490135,0 -1.490135,-1.12889 0,-1.12889 1.490135,-1.12889 h 0.338667 v -8.647298 h -0.338667 q -1.490135,0 -1.490135,-1.12889 0,-0.654756 0.383823,-0.880534 0.383823,-0.248356 1.106312,-0.248356 h 5.260628 q 2.144891,0 3.522137,1.196623 1.377246,1.196624 1.377246,3.070581 z m -7.563564,-2.009424 v 4.131738 h 2.664181 q 1.174046,0 1.828802,-0.541868 0.677334,-0.564445 0.677334,-1.512712 0,-0.970846 -0.677334,-1.512713 -0.654756,-0.564445 -1.828802,-0.564445 z"
         id="path8" />
      <path
         style="fill:#00ff00"
         d="m 71.42446,19.54755 q 0,-1.512713 1.12889,-1.512713 1.12889,0 1.12889,1.512713 v 3.431826 H 63.048096 q -1.490135,0 -1.490135,-1.12889 0,-1.12889 1.490135,-1.12889 h 0.338667 v -8.647298 h -0.338667 q -1.490135,0 -1.490135,-1.12889 0,-0.654756 0.383823,-0.880534 0.383823,-0.248356 1.106312,-0.248356 h 10.137433 v 3.38667 q 0,1.512713 -1.12889,1.512713 -1.12889,0 -1.12889,-1.512713 v -1.12889 h -5.283206 v 3.18347 h 1.919113 v -0.158045 q 0,-1.512712 1.106313,-1.512712 1.12889,0 1.12889,1.512712 v 2.551292 q 0,1.490135 -1.106312,1.490135 -1.128891,0 -1.128891,-1.490135 V 17.49297 h -1.919113 v 3.228626 h 5.779917 z"
         id="path9" />
      <path
         style="fill:#ffff00"
         d="m 86.574172,17.131725 q 0.654757,0 0.880535,0.383823 0.248355,0.383823 0.248355,1.12889 v 4.334938 H 77.04634 q -1.490134,0 -1.490134,-1.12889 0,-0.654756 0.383822,-0.880534 0.383823,-0.248356 1.106312,-0.248356 h 1.286935 V 12.074298 H 77.04634 q -1.490134,0 -1.490134,-1.12889 0,-0.654756 0.383822,-0.880534 0.383823,-0.248356 1.106312,-0.248356 h 4.83165 q 1.490135,0 1.490135,1.12889 0,1.12889 -1.490135,1.12889 h -1.286935 v 8.647298 h 4.854227 v -2.077158 q 0,-1.512713 1.12889,-1.512713 z m 11.943665,2.415825 q 0,-1.512713 1.12889,-1.512713 1.128893,0 1.128893,1.512713 v 3.431826 H 90.141472 q -1.490134,0 -1.490134,-1.12889 0,-1.12889 1.490134,-1.12889 h 0.338668 v -8.647298 h -0.338668 q -1.490134,0 -1.490134,-1.12889 0,-0.654756 0.383822,-0.880534 0.383823,-0.248356 1.106312,-0.248356 h 10.137438 v 3.38667 q 0,1.512713 -1.128895,1.512713 -1.12889,0 -1.12889,-1.512713 v -1.12889 H 92.73792 v 3.18347 h 1.919113 v -0.158045 q 0,-1.512712 1.106312,-1.512712 1.12889,0 1.12889,1.512712 v 2.551292 q 0,1.490135 -1.106312,1.490135 -1.12889,0 -1.12889,-1.490135 V 17.49297 H 92.73792 v 3.228626 h 5.779917 z m 15.646423,1.174046 q 1.49014,0 1.49014,1.12889 0,1.12889 -1.49014,1.12889 h -1.78364 q -0.83538,-1.625602 -2.14489,-3.18347 -1.28694,-1.580446 -2.00943,-1.828802 h -2.16747 v 2.754492 h 0.79023 q 1.49013,0 1.49013,1.12889 0,1.12889 -1.49013,1.12889 h -3.38667 q -1.49014,0 -1.49014,-1.12889 0,-1.12889 1.49014,-1.12889 h 0.33866 v -8.647298 h -0.33866 q -1.49014,0 -1.49014,-1.12889 0,-0.654756 0.38382,-0.880534 0.38383,-0.248356 1.10632,-0.248356 h 5.03485 q 2.19004,0 3.56729,1.12889 1.39982,1.106312 1.39982,2.889959 0,2.077157 -2.4384,3.409247 1.46756,1.286935 2.8448,3.476982 z m -8.10543,-5.012272 h 1.71592 q 1.4224,0 2.34809,-0.541867 0.94827,-0.564445 0.94827,-1.399824 0,-0.722489 -0.69992,-1.196623 -0.69991,-0.496712 -1.78364,-0.496712 h -2.52872 z"
         id="path10" />
      <path
         style="fill:#ff0000"
         d="m 123.35343,21.850486 q 0,-0.654756 0.38383,-0.880534 0.38382,-0.248356 1.10631,-0.248356 h 0.51929 l -0.51929,-1.309513 h -5.37352 l -0.51929,1.309513 h 0.51929 q 1.49014,0 1.49014,1.12889 0,1.12889 -1.49014,1.12889 h -3.00285 q -1.49013,0 -1.49013,-1.12889 0,-0.677334 0.4064,-0.903112 0.38382,-0.225778 1.10631,-0.225778 l 3.49956,-8.647298 h -1.4224 q -1.51271,0 -1.51271,-1.12889 0,-0.677334 0.38382,-0.903112 0.4064,-0.225778 1.12889,-0.225778 h 4.8768 l 4.49299,10.905078 q 1.53529,0 1.53529,1.12889 0,1.12889 -1.49014,1.12889 h -3.13831 q -1.49014,0 -1.49014,-1.12889 z m 0.56445,-4.696183 -1.76107,-4.334937 -1.78365,4.334937 z m 14.4498,3.567293 q 1.49014,0 1.49014,1.12889 0,1.12889 -1.49014,1.12889 h -5.21547 q -1.49014,0 -1.49014,-1.12889 0,-0.654756 0.38383,-0.880534 0.38382,-0.248356 1.10631,-0.248356 h 1.46756 v -8.647298 h -2.41583 v 2.099736 q 0,1.490134 -1.12889,1.490134 -1.12889,0 -1.12889,-1.490134 V 9.816518 h 11.65015 v 4.357516 q 0,0.722489 -0.24836,1.106312 -0.22578,0.383822 -0.88053,0.383822 -1.12889,0 -1.12889,-1.490134 v -2.099736 h -2.46098 v 8.647298 z M 152.7046,19.54755 q 0,-1.512713 1.12889,-1.512713 1.12889,0 1.12889,1.512713 v 3.431826 h -10.63415 q -1.49013,0 -1.49013,-1.12889 0,-1.12889 1.49013,-1.12889 h 0.33867 v -8.647298 h -0.33867 q -1.49013,0 -1.49013,-1.12889 0,-0.654756 0.38382,-0.880534 0.38382,-0.248356 1.10631,-0.248356 h 10.13743 v 3.38667 q 0,1.512713 -1.12889,1.512713 -1.12889,0 -1.12889,-1.512713 v -1.12889 h -5.2832 v 3.18347 h 1.91911 v -0.158045 q 0,-1.512712 1.10631,-1.512712 1.12889,0 1.12889,1.512712 v 2.551292 q 0,1.490135 -1.10631,1.490135 -1.12889,0 -1.12889,-1.490135 V 17.49297 h -1.91911 v 3.228626 h 5.77992 z"
         id="path11" />
    </g>
  </g>
</svg>
